<?xml version="1.0" encoding="utf-8"?>
<svg xmlns="http://www.w3.org/2000/svg" viewBox="95.808 95.5138 96.3398 97.0438" width="96.3398px" height="97.0438px">
  <defs>
    <radialGradient id="studio_light" cx="50%" cy="35%" r="75%">
      <stop offset="0" stop-color="#6366F1"/>
      <stop offset="0.55" stop-color="#1E1B4B"/>
      <stop offset="1" stop-color="#020617"/>
    </radialGradient>
    <filter id="grain">
      <feTurbulence type="fractalNoise" baseFrequency="0.8" numOctaves="2" stitchTiles="stitch"/>
      <feColorMatrix type="saturate" values="0"/>
      <feComponentTransfer>
        <feFuncA type="linear" slope="0.03"/>
      </feComponentTransfer>
    </filter>
    <filter id="soft_drop" x="-40%" y="-40%" width="180%" height="180%">
      <feDropShadow dx="0" dy="22" stdDeviation="24" flood-opacity="0.45"/>
    </filter>
    <radialGradient gradientUnits="userSpaceOnUse" cx="418" cy="278" r="0" id="gradient-0" gradientTransform="matrix(1, 0, 0, 1, 0, 0)">
      <stop offset="0" style="stop-color: rgb(0% 0% 0%)"/>
      <stop offset="1" style=""/>
    </radialGradient>
    <linearGradient gradientUnits="userSpaceOnUse" x1="418" y1="238" x2="418" y2="318" id="gradient-2" gradientTransform="matrix(1.000002, 0, 0, 1, -0.000932, 0)">
      <stop offset="0" style="stop-color: rgb(47.059% 20.784% 5.8824%)"/>
      <stop offset="1" style="stop-color: rgb(33.342% 9.9086% 0%)"/>
    </linearGradient>
    <linearGradient id="gold_premium" x1="0%" y1="0%" x2="100%" y2="0%">
      <stop offset="0" stop-color="#78350F"/>
      <stop offset="0.25" stop-color="#FDE68A"/>
      <stop offset="0.45" stop-color="#EAB308"/>
      <stop offset="0.7" stop-color="#A16207"/>
      <stop offset="1" stop-color="#713F12"/>
    </linearGradient>
    <linearGradient id="soft_glint" x1="0%" y1="0%" x2="100%" y2="100%">
      <stop offset="0" stop-color="white" stop-opacity="0.18"/>
      <stop offset="0.45" stop-color="white" stop-opacity="0.04"/>
      <stop offset="1" stop-color="white" stop-opacity="0"/>
    </linearGradient>
    <style>
      .twinkle {
        animation: twinkle 2s ease-in-out infinite;
      }
      @keyframes twinkle {
        0%, 100% { opacity: 1; transform: scale(1); }
        50% { opacity: 0.4; transform: scale(1.1); }
      }
      .pulse {
        animation: pulse 2.5s ease-in-out infinite;
      }
      @keyframes pulse {
        0%, 100% { transform: scale(1); filter: brightness(1); }
        50% { transform: scale(1.03); filter: brightness(1.2); }
      }
      .small-twinkle {
        animation: small-twinkle 3s ease-in-out infinite alternate;
      }
      @keyframes small-twinkle {
        0%, 100% { opacity: 0.8; transform: scale(1); }
        50% { opacity: 1; transform: scale(1.05); }
      }
      .float {
        animation: float 6s ease-in-out infinite;
      }
      @keyframes float {
        0%, 100% { transform: translateY(0); }
        50% { transform: translateY(-10px); }
      }
      .text-glow {
        animation: text-glow 2s ease-in-out infinite alternate;
      }
      @keyframes text-glow {
        0% { filter: drop-shadow(0 0 2px rgba(255,255,255,0.5)); }
        100% { filter: drop-shadow(0 0 8px rgba(255,255,255,0.8)); }
      }
    </style>
  </defs>
  <rect style="fill-rule: nonzero; paint-order: stroke; stroke-width: 0.876;" fill="url(#studio_light)" x="95.856" y="96.77" width="96.207" height="95.727" rx="27.81" ry="27.81" transform="matrix(0.9999079704284668, 0.013596000149846077, 0, 1.0000920295715332, 0.10244599729776382, -2.5683159828186035)"/>
  <rect width="96.207" height="95.727" rx="49.661" filter="url(#grain)" opacity="0.15" style="stroke-width: 0.876;" x="95.856" y="96.77" transform="matrix(0.9999079704284668, 0.013596000149846077, 0, 1.0000920295715332, 0.10244599729776382, -2.5683159828186035)" ry="49.661"/>
  <rect x="75.837" y="75.809" width="73.465" height="72.395" rx="122" fill="none" stroke="white" stroke-opacity="0.08" stroke-width="2" style="stroke-width: 1.753;" transform="matrix(0.9999079704284668, 0.013596000149846077, 0, 1.0000920295715332, 31.440813064575188, 30.452701568603523)"/>
  <g filter="url(#soft_drop)" style="" transform="matrix(0.12933501601219177, 0.0017580001149326563, 0, 0.07078900188207626, 110.89018249511719, 123.08980560302734)">
    <path d="M 150 275 L 150 378.469 C 150 378.469 198 458.06 256 458.06 C 314 458.06 362 378.469 362 378.469 L 362 275" fill="#020617" style="transform-box: fill-box; transform-origin: 50% 50%;"/>
    <path d="M460 228L256 330L52 228V240L256 340L460 240V228Z" fill="#020617" style=""/>
    <path d="M256 120L460 228L256 330L52 228L256 120Z" fill="#0F172A" style=""/>
    <path d="M256 120L460 228L256 260Z" fill="white" opacity="0.045" style=""/>
    <ellipse cx="256" cy="228" rx="11" ry="5.5" fill="#020617" style=""/>
    <path d="M256 228C256 228 370 232 418 238" stroke="#020617" stroke-width="3" fill="none" style=""/>
    <path d="M 418.04 237.062 L 415.985 317.626" stroke-linecap="round" style="fill: url(&quot;#gradient-0&quot;); stroke: url(&quot;#gradient-2&quot;); stroke-width: 1.072;"/>
    <g transform="matrix(0.576819, 0, 0, 1.538093, 406.463623, 316.264496)" style="">
      <rect x="12" y="0" width="12" height="9" rx="3" fill="#92400E" style=""/>
      <path d="M6 9H30L34 62C34 68 24 72 18 72C12 72 2 68 2 62L6 9Z" fill="url(#gold_premium)" style=""/>
      <path d="M18 9V70" stroke="#713F12" stroke-opacity="0.25" stroke-width="2" style=""/>
    </g>
  </g>
  <path d="M 95.808 123.538 C 96.212 117.007 99.011 109.382 103.55 104.155 C 108.94 97.948 117.268 96.669 117.268 96.669 C 117.271 96.669 118.849 96.85 122.78 95.915 C 122.78 95.915 127.182 95.477 135.204 96.104 L 160.747 96.481 L 168.772 97.041 L 176.67 99.15 L 96.543 158.742 L 95.808 123.538 Z" fill="url(#soft_glint)" style="stroke-width: 0.876;"/>
</svg>
